<svg width="64" height="64" viewBox="0 0 64 64" xmlns="http://www.w3.org/2000/svg">
  <defs>
    <linearGradient id="seedGold" x1="0" y1="0" x2="0" y2="1">
      <stop offset="0%" stop-color="#FFE16A"/>
      <stop offset="45%" stop-color="#F4C518"/>
      <stop offset="100%" stop-color="#D69A0E"/>
    </linearGradient>
    <linearGradient id="leafGold" x1="0" y1="0" x2="1" y2="1">
      <stop offset="0%" stop-color="#FFD83A"/>
      <stop offset="100%" stop-color="#E2A60C"/>
    </linearGradient>
  </defs>
  <g stroke="#1c1205" stroke-width="2.5" stroke-linejoin="round" stroke-linecap="round">
    <path d="M32 17 C 22 21, 16 31, 16 41 C 16 52, 24 58, 32 58 C 40 58, 48 52, 48 41 C 48 31, 42 21, 32 17 Z" fill="url(#seedGold)"/>
    <path d="M32 18 L 32 11" fill="none"/>
    <path d="M32 12 C 27 6, 20 4, 14 6 C 18 12, 26 14, 32 12 Z" fill="url(#leafGold)"/>
    <path d="M32 12 C 37 5, 45 3, 51 6 C 47 12, 38 15, 32 12 Z" fill="url(#leafGold)"/>
  </g>
  <ellipse cx="26" cy="31" rx="4.2" ry="6.8" fill="#FFFFFF" opacity="0.32" transform="rotate(-20 26 31)"/>
</svg>
